<?xml version="1.0" encoding="UTF-8"?>
<!DOCTYPE svg PUBLIC "-//W3C//DTD SVG 1.1//EN" "http://www.w3.org/Graphics/SVG/1.1/DTD/svg11.dtd">
<!-- Creator: CorelDRAW -->
<svg xmlns="http://www.w3.org/2000/svg" xml:space="preserve" width="29.9359mm" height="15.1484mm" style="shape-rendering:geometricPrecision; text-rendering:geometricPrecision; image-rendering:optimizeQuality; fill-rule:evenodd; clip-rule:evenodd"
viewBox="0 0 29.9398 15.1504"
 xmlns:xlink="http://www.w3.org/1999/xlink">
 <defs>
  <style type="text/css">
   <![CDATA[
    .fil3 {fill:#0A4187}
    .fil1 {fill:#7C848A}
    .fil0 {fill:#FFA02F}
    .fil2 {fill:#7C848A;fill-rule:nonzero}
   ]]>
  </style>
 </defs>
 <g id="Layer_x0020_1">
  <metadata id="CorelCorpID_0Corel-Layer"/>
  <g id="_231022272">
   <path id="_228805304" class="fil0" d="M1.29427 11.8107c-0.817106,-1.20916 -1.29427,-2.66675 -1.29427,-4.23555 0,-1.5688 0.477162,-3.02639 1.29427,-4.23555l4.23545 4.23555 -4.23545 4.23555z"/>
   <g>
    <path id="_228805448" class="fil1" d="M13.8563 3.33964c0.54017,0.799304 0.931621,1.70712 1.13505,2.68385l-3.20902 0.000600078 0 3.01739 3.22622 0c-0.197926,1.00923 -0.596378,1.94675 -1.15225,2.76926l-4.23545 -4.23555 4.23545 -4.23555zm1.23536 3.28653c0.0249032,0.199326 0.0420055,0.401052 0.0512067,0.604879l-2.62834 0 0 -0.604879 2.57714 0zm0.0545071 1.20766c-0.00680089,0.203727 -0.0217028,0.405453 -0.0443058,0.604879l-2.58734 0 0 -0.604879 2.63164 0z"/>
    <path id="_228805544" class="fil2" d="M29.9398 9.03958l-0.733296 0 0 -2.14138 -0.0125016 0 -1.43729 1.72893 -1.43729 -1.72893 -0.0125016 0 0 2.14138 -0.733196 0 0 -3.01619 0.852611 0 1.32767 1.59691 1.32757 -1.59691 0.858212 0 0 3.01619zm-4.95265 -1.01653c0,0.886015 -1.15015,1.10404 -1.82474,1.10404 -0.674688,0 -1.82474,-0.218028 -1.82474,-1.10404l0 -1.99966 0.733196 0 0 1.89965c0,0.523968 0.705092,0.620781 1.09154,0.620781 0.38385,0 1.09144,-0.100813 1.09144,-0.620781l0 -1.89965 0.733296 0 0 1.99966zm-4.28276 1.01653l-0.733296 0 0 -3.01619 0.733296 0 0 3.01619zm-1.32657 0l-0.858212 0 -2.04547 -2.15388 -0.0125016 0 0 2.15388 -0.733296 0 0 -3.01619 0.855411 0 2.04417 2.15798 0.0167022 0 0 -2.15798 0.733196 0 0 3.01619z"/>
   </g>
   <path id="_228805664" class="fil3" d="M7.00731 4.21955l1.12835 0 -0.562573 0.556172 -0.565774 -0.556172zm0.567974 -4.21955c0.943623,0 1.84704,0.172823 2.68025,0.488364l-5.3606 0c0.833309,-0.315541 1.73663,-0.488364 2.68035,-0.488364zm3.70518 0.967226c0.244032,0.137118 0.479562,0.287537 0.705892,0.449959l-8.82215 0c0.226329,-0.162521 0.46186,-0.312841 0.705892,-0.449959l7.41037 0zm1.30047 0.92342c0.161821,0.142619 0.317641,0.292138 0.466761,0.447958l-10.9449 0c0.149219,-0.15582 0.30494,-0.30534 0.466861,-0.447958l10.0113 0zm0.883715 0.92152c0.125616,0.15502 0.245332,0.315141 0.358547,0.479963l-4.01042 0 -2.23749 2.23759 -2.23749 -2.23759 -4.01052 0c0.113315,-0.164821 0.23303,-0.324942 0.358647,-0.479963l11.7787 0zm-7.40036 0.475162l3.01429 0 -0.484363 0.478862 -2.04557 0 -0.484363 -0.478862z"/>
   <path id="_228805760" class="fil3" d="M8.14336 10.9308l-1.12835 0 0.562473 -0.556172 0.565874 0.556172zm-0.568074 4.21955c-0.943623,0 -1.84704,-0.172823 -2.68025,-0.488364l5.3606 0c-0.833209,0.315541 -1.73663,0.488364 -2.68035,0.488364zm-3.70518 -0.967226c-0.243932,-0.137118 -0.479562,-0.287537 -0.705892,-0.449959l8.82215 0c-0.226329,0.162521 -0.46186,0.312841 -0.705892,0.449959l-7.41037 0zm-1.30047 -0.92342c-0.161821,-0.142619 -0.317641,-0.292138 -0.466761,-0.447958l10.9449 0c-0.149119,0.15582 -0.30494,0.30534 -0.466861,0.447958l-10.0113 0zm-0.883715 -0.92152c-0.125616,-0.15502 -0.245332,-0.315141 -0.358547,-0.479963l4.01042 0 2.23749 -2.23759 2.23749 2.23759 4.01052 0c-0.113315,0.164821 -0.23303,0.324942 -0.358647,0.479963l-11.7787 0zm7.40036 -0.475162l-3.01429 0 0.484363 -0.478862 2.04557 0 0.484363 0.478862z"/>
  </g>
 </g>
</svg>
