<?xml version="1.0" encoding="utf-8"?>
<!-- Generator: Adobe Illustrator 24.3.0, SVG Export Plug-In . SVG Version: 6.00 Build 0)  -->
<svg version="1.1" id="Layer_1" xmlns="http://www.w3.org/2000/svg" xmlns:xlink="http://www.w3.org/1999/xlink" x="0px" y="0px"
	 viewBox="0 0 365.1 329.2" style="enable-background:new 0 0 365.1 329.2;" xml:space="preserve">
<style type="text/css">
	.st0{fill:#2E2A6C;}
	.st1{fill:#DE2927;}
	.st2{fill:#515252;}
</style>
<g>
	<path class="st0" d="M199.5,44.9c1.5,0,2.6,1,2.6,2.5c0,1.4-1.1,2.5-2.6,2.5H198v3h-1.5v-7.9H199.5z M199.5,48.4
		c0.7,0,1.1-0.4,1.1-1.1c0-0.7-0.5-1.1-1.1-1.1H198v2.2H199.5z"/>
	<path class="st0" d="M208.9,49.1c0,1,0,2.1-0.8,2.9c-0.6,0.6-1.3,0.9-2.1,0.9c-0.9,0-1.6-0.3-2.1-0.9c-0.8-0.8-0.8-2-0.8-2.8v-0.7
		c0-1.6,0.2-2.2,0.8-2.8c0.6-0.6,1.3-0.9,2.1-0.9c0.8,0,1.6,0.3,2.1,0.9c0.6,0.6,0.8,1.3,0.8,2.6V49.1z M207,46.6
		c-0.2-0.3-0.6-0.4-1-0.4c-0.4,0-0.8,0.1-1,0.4c-0.4,0.4-0.4,1.1-0.4,2.1v0.4c0,0.8,0,1.6,0.4,1.9c0.3,0.3,0.6,0.4,1,0.4
		c0.4,0,0.7-0.1,1-0.4c0.3-0.4,0.4-0.8,0.4-2.4C207.3,47.4,207.3,46.9,207,46.6z"/>
	<path class="st0" d="M210.4,52.8v-7.9h1.5v3.7l2.5-3.7h1.8l-2.6,3.7l2.9,4.2h-1.9l-2.8-4.1v4.1H210.4z"/>
	<path class="st0" d="M217.3,52.8v-7.9h1.5v7.9H217.3z"/>
	<path class="st0" d="M225.8,49.1c0.3,0.4,0.5,0.8,0.5,1.4c0,1.4-0.9,2.3-2.4,2.3h-3.3v-7.9h3.2c1.5,0,2.4,0.8,2.4,2.2
		c0,0.8-0.3,1.3-1,1.7C225.5,48.9,225.6,49,225.8,49.1z M223.6,48.1c0.6,0,1-0.3,1-0.9c0-0.6-0.4-0.9-1-0.9h-1.5v1.8H223.6z
		 M223.7,51.4c0.6,0,1-0.4,1-1c0-0.6-0.4-1-1-1h-1.6v1.9H223.7z"/>
	<path class="st0" d="M195.9,61.4h1.5c0.2,0.6,0.6,1.1,1.4,1.1c0.8,0,1.3-0.4,1.3-1.1c0-0.7-0.4-1.1-1.2-1.1h-1v-1.3h1
		c0.7,0,1.1-0.4,1.1-1c0-0.6-0.4-1-1.1-1c-0.8,0-1.2,0.5-1.3,1.1H196c0.3-1.6,1.4-2.5,2.9-2.5c1.5,0,2.7,0.9,2.7,2.2
		c0,0.8-0.4,1.4-1,1.7c0.7,0.3,1.1,0.9,1.1,1.8c0,1.4-1.2,2.3-2.8,2.3C197.4,63.9,196.2,63.1,195.9,61.4z"/>
	<path class="st0" d="M210.8,60.2c0.3,0.4,0.5,0.8,0.5,1.4c0,1.4-0.9,2.3-2.4,2.3h-3.3v-7.9h3.2c1.5,0,2.4,0.8,2.4,2.2
		c0,0.8-0.3,1.3-1,1.7C210.5,60,210.6,60,210.8,60.2z M208.6,59.1c0.6,0,1-0.3,1-0.9c0-0.6-0.4-0.9-1-0.9h-1.5v1.8H208.6z
		 M208.7,62.5c0.6,0,1-0.4,1-1s-0.4-1-1-1h-1.6v1.9H208.7z"/>
	<path class="st0" d="M217.2,63.8l-0.5-1.4h-2.8l-0.5,1.4h-1.6l2.9-7.9h1.2l2.9,7.9H217.2z M215.3,58.3l-1,2.9h2L215.3,58.3z"/>
	<path class="st0" d="M225.2,63.8v-4.6l-1.5,3h-1l-1.5-3v4.6h-1.5v-7.9h1.5l2.1,4.3l2-4.3h1.5v7.9H225.2z"/>
	<path class="st0" d="M232.9,63.8v-5.1l-3.1,5.1h-1.4v-7.9h1.5V61l3.1-5.1h1.4v7.9H232.9z"/>
</g>
<g>
	<path class="st1" d="M177.6,100.5c-1.2,1.3-2.7,2.3-4.3,3c-1.7,0.7-3.5,1.1-5.4,1.1c-3.7,0-6.7-1-9-3c-2.3-2-3.7-4.4-4.2-7h-8.5
		c0.4,2.4,1.2,4.7,2.4,6.8c1.2,2.1,2.7,4,4.5,5.5c1.8,1.6,4,2.8,6.5,3.7c2.5,0.9,5.2,1.4,8.3,1.4c3.2,0,6.1-0.6,8.8-1.7
		c2.7-1.1,5.1-2.7,7-4.6c2-2,3.5-4.3,4.6-7c1.1-2.7,1.7-5.7,1.7-8.8c0-3.2-0.6-6.1-1.7-8.8c-1.1-2.7-2.6-5.1-4.5-7
		c-1.9-2-4.2-3.5-6.7-4.6c-2.6-1.1-5.3-1.7-8.2-1.7c-1.8,0-3.4,0.2-4.9,0.6c-1.4,0.4-2.6,0.9-3.6,1.5c-1.2,0.6-2.2,1.3-3.1,2.1
		l2.1-19h26.4v-7.9H152l-4.2,38h7.4c0.6-1.4,1.5-2.7,2.7-3.9c1-1,2.3-1.9,3.9-2.7c1.6-0.9,3.6-1.3,6-1.3c4,0,7.3,1.3,9.9,4
		c2.6,2.7,3.8,6.3,3.8,10.8c0,2.3-0.4,4.3-1.1,6.1C179.8,97.7,178.8,99.2,177.6,100.5z"/>
	<path class="st0" d="M66.2,247.5c0,0,53.1-65.7,113.7-113.7c40.1-31.7,100-59.4,109-41.6c12.1,23.8-61.5,86-61.5,86
		s38.2-45.5,26.5-55.4C218.1,92.6,66.2,247.5,66.2,247.5"/>
	<path class="st1" d="M281.8,239.2c0,0-76.3-91.8-139.2-134.8V44.9h-5.3L121,56.5l3.7,6.3l9.5-6.3v42.4c-27.9-16.8-57-20.2-68.3-6.9
		c-10.4,12.2-2,40.1,13.3,62.6c32.3,47.4,96.8,96,96.8,96s-62.9-57-84.6-98.5c-8-15.3-6.4-31.6,0.6-37.9c8.8-7.9,27.7-7.3,47.2,2.5
		c10.5,5.3,22.1,12.9,33.9,21.8l0,0l10,7.7l0.1,0C231.8,184.8,281.8,239.2,281.8,239.2z"/>
	<rect x="134.4" y="213.6" class="st0" width="4.3" height="21.4"/>
	<polygon class="st0" points="162.4,235.1 158.1,235.1 158.1,226.5 145.2,226.5 145.2,235.1 140.8,235.1 140.8,213.6 145.2,213.6 
		145.2,222.2 158.1,222.2 158.1,213.6 162.4,213.6 	"/>
	<path class="st0" d="M186.2,235.1h-15.1c-4.3,0-6.5-2.1-6.5-6.4v-8.6c0-4.3,2.2-6.4,6.5-6.4h15.1v4.3h-15.1c-1.4,0-2.2,0.7-2.2,2.1
		v8.6c0,1.4,0.7,2.1,2.2,2.1h15.1V235.1z"/>
	<polygon class="st0" points="209.9,217.9 201.3,217.9 201.3,235.1 197,235.1 197,217.9 188.3,217.9 188.3,213.6 209.9,213.6 	"/>
	<polygon class="st0" points="233.6,235.1 229.3,235.1 229.3,220.2 216.4,235.1 212.1,235.1 212.1,213.6 216.4,213.6 216.4,228.5 
		229.3,213.6 233.6,213.6 	"/>
	<polygon class="st0" points="257.4,217.9 248.8,217.9 248.8,235.1 244.4,235.1 244.4,217.9 235.8,217.9 235.8,213.6 257.4,213.6 	
		"/>
	<path class="st0" d="M261.7,230.8h2.3c0.5,0,1.2-0.7,2.2-2.1l2.7-4.3l-9.4-10.7h5.6l6.3,7.1l4.5-7.1h5.1c-1.8,2.9-4,6.3-6.6,10.4
		c-1,1.5-1.7,2.7-2.3,3.5c-0.6,0.9-1,1.5-1.3,2c-0.3,0.5-0.6,0.8-0.7,0.9s-0.2,0.3-0.3,0.4c-1.7,2.9-3.6,4.3-5.5,4.3h-2.8V230.8z"/>
	<polygon class="st0" points="303.8,217.9 295.2,217.9 295.2,235.1 290.8,235.1 290.8,217.9 282.2,217.9 282.2,213.6 303.8,213.6 	
		"/>
	<path class="st1" d="M161.2,266.6h-18.8c-5.4,0-8-2.7-8-8v-10.7c0-5.4,2.7-8,8-8h18.8v5.4h-18.8c-1.8,0-2.7,0.9-2.7,2.7v10.7
		c0,1.8,0.9,2.7,2.7,2.7h18.8V266.6z"/>
	<polygon class="st1" points="190.7,245.2 169.3,245.2 169.3,250.6 185.3,250.6 185.3,255.9 169.3,255.9 169.3,261.3 190.7,261.3 
		190.7,266.6 163.9,266.6 163.9,239.8 190.7,239.8 	"/>
	<path class="st1" d="M220.2,247.9v2.7c0,5.4-2.7,8-8,8h-13.4v8h-5.4v-26.8h18.8C217.5,239.8,220.2,242.5,220.2,247.9 M214.8,247.9
		c0-1.8-0.9-2.7-2.7-2.7h-13.4v8h13.4c1.8,0,2.7-0.9,2.7-2.7V247.9z"/>
	<polygon class="st1" points="249.7,261.3 252.4,261.3 252.4,272 247,272 247,266.6 222.9,266.6 222.9,239.8 228.2,239.8 
		228.2,261.3 244.3,261.3 244.3,239.8 249.7,239.8 	"/>
	<path class="st1" d="M263.1,239.8h18.8v26.8h-5.4v-8h-5.8l-8,8H255l8-8c-5.4,0-8-2.7-8-8v-2.7C255,242.5,257.7,239.8,263.1,239.8
		 M260.4,250.6c0,1.8,0.9,2.7,2.7,2.7h13.4v-8h-13.4c-1.8,0-2.7,0.9-2.7,2.7V250.6z"/>
	<path class="st2" d="M134.6,293v-12.8h2.5l3,9.1c0.3,0.8,0.5,1.5,0.6,1.9c0.1-0.5,0.4-1.1,0.7-2.1l3.1-8.9h2.3V293h-1.6v-10.7
		l-3.7,10.7H140l-3.7-10.9V293H134.6z"/>
	<path class="st2" d="M149.1,286.8c0-2.1,0.6-3.8,1.7-5c1.1-1.2,2.6-1.8,4.4-1.8c1.2,0,2.2,0.3,3.2,0.8c0.9,0.6,1.7,1.4,2.2,2.4
		c0.5,1,0.7,2.2,0.7,3.4c0,1.3-0.3,2.5-0.8,3.5c-0.5,1-1.3,1.8-2.2,2.3c-1,0.5-2,0.8-3.1,0.8c-1.2,0-2.3-0.3-3.2-0.9
		c-0.9-0.6-1.7-1.4-2.2-2.4C149.3,289,149.1,287.9,149.1,286.8 M150.8,286.8c0,1.5,0.4,2.8,1.2,3.6c0.8,0.9,1.9,1.3,3.1,1.3
		c1.3,0,2.3-0.4,3.1-1.3c0.8-0.9,1.2-2.2,1.2-3.8c0-1-0.2-1.9-0.5-2.7c-0.4-0.8-0.9-1.4-1.5-1.8c-0.7-0.4-1.4-0.6-2.3-0.6
		c-1.2,0-2.2,0.4-3.1,1.2C151.2,283.5,150.8,284.9,150.8,286.8"/>
	<path class="st2" d="M162.8,289.4l1.6-0.4c0.1,0.6,0.4,1.2,1,1.9c0.5,0.6,1.2,0.9,2.1,0.9c0.9,0,1.6-0.2,2.1-0.7
		c0.5-0.5,0.8-1,0.8-1.7c0-0.7-0.3-1.3-0.8-1.7c-0.5-0.4-1.3-0.6-2.2-0.6h-0.8v-1.5c0.8,0,1.4,0,1.8-0.1c0.4-0.1,0.8-0.3,1.1-0.7
		c0.3-0.4,0.5-0.8,0.5-1.3c0-0.6-0.2-1-0.7-1.5c-0.4-0.4-1-0.6-1.8-0.6c-0.6,0-1.2,0.2-1.7,0.5s-0.8,0.8-0.9,1.3
		c-0.2,0.5-0.3,0.9-0.3,1.2l-1.6-0.4c0.4-2.7,1.9-4.1,4.5-4.1c1.3,0,2.2,0.3,3,1c0.7,0.7,1.1,1.5,1.1,2.4c0,1.2-0.6,2.1-1.7,2.8
		c0.7,0.2,1.2,0.5,1.6,1.1c0.4,0.6,0.7,1.2,0.7,2c0,1.1-0.4,2-1.3,2.8c-0.9,0.7-2,1.1-3.4,1.1C165.1,293.2,163.5,292,162.8,289.4"/>
	<path class="st2" d="M177.9,280.2h1.7l4.2,7.8l3.6-7.8h1.7l-4.8,9.9c-0.6,1.2-1.1,2.1-1.5,2.4c-0.4,0.4-0.9,0.6-1.6,0.6
		c-0.4,0-1-0.1-1.6-0.3v-1.4c0.5,0.3,0.9,0.4,1.4,0.4c0.4,0,0.8-0.1,1.1-0.4c0.3-0.3,0.6-0.9,1-1.8L177.9,280.2z"/>
	<path class="st2" d="M189.6,283.7h1.6v4c0.5,0,0.8-0.1,1.1-0.3c0.2-0.2,0.5-0.8,0.9-1.7c0.3-0.7,0.6-1.2,0.8-1.4
		c0.2-0.2,0.4-0.4,0.7-0.5c0.3-0.1,0.7-0.1,1.2-0.1h0.3v1.3l-0.4,0c-0.4,0-0.7,0.1-0.8,0.2c-0.1,0.1-0.3,0.5-0.6,1.1
		c-0.2,0.6-0.5,1-0.7,1.3c-0.2,0.2-0.5,0.4-0.9,0.6c0.7,0.2,1.3,0.8,2,1.9l1.7,2.9h-1.7l-1.7-2.9c-0.3-0.6-0.6-1-0.9-1.1
		c-0.3-0.2-0.6-0.3-0.9-0.3v4.3h-1.6V283.7z"/>
	<path class="st2" d="M197.4,296.6v-12.8h1.4v1.2c0.3-0.5,0.7-0.8,1.1-1.1c0.4-0.2,0.9-0.4,1.5-0.4c0.8,0,1.5,0.2,2.1,0.6
		c0.6,0.4,1.1,1,1.4,1.7c0.3,0.7,0.5,1.6,0.5,2.4c0,0.9-0.2,1.8-0.5,2.6c-0.3,0.8-0.8,1.3-1.5,1.7c-0.6,0.4-1.3,0.6-2,0.6
		c-0.5,0-1-0.1-1.4-0.3c-0.4-0.2-0.8-0.5-1-0.8v4.5H197.4z M198.8,288.4c0,1.2,0.2,2.1,0.7,2.6c0.5,0.6,1.1,0.9,1.8,0.9
		c0.7,0,1.3-0.3,1.8-0.9c0.5-0.6,0.7-1.5,0.7-2.7c0-1.2-0.2-2.1-0.7-2.7c-0.5-0.6-1.1-0.9-1.7-0.9c-0.7,0-1.3,0.3-1.8,0.9
		C199.1,286.3,198.8,287.2,198.8,288.4"/>
	<path class="st2" d="M213.4,291.9c-0.6,0.5-1.1,0.8-1.7,1c-0.5,0.2-1.1,0.3-1.7,0.3c-1,0-1.8-0.2-2.3-0.7c-0.5-0.5-0.8-1.1-0.8-1.9
		c0-0.5,0.1-0.9,0.3-1.2c0.2-0.4,0.5-0.7,0.8-0.9c0.3-0.2,0.7-0.4,1.1-0.5c0.3-0.1,0.8-0.2,1.4-0.2c1.3-0.1,2.2-0.3,2.8-0.5
		c0-0.2,0-0.4,0-0.4c0-0.6-0.1-1.1-0.4-1.4c-0.4-0.4-1-0.5-1.8-0.5c-0.7,0-1.3,0.1-1.6,0.4c-0.4,0.3-0.6,0.7-0.8,1.4l-1.5-0.2
		c0.1-0.7,0.4-1.2,0.7-1.6c0.3-0.4,0.8-0.7,1.4-0.9c0.6-0.2,1.3-0.3,2.1-0.3c0.8,0,1.4,0.1,1.9,0.3c0.5,0.2,0.9,0.4,1.1,0.7
		c0.2,0.3,0.4,0.6,0.5,1.1c0.1,0.3,0.1,0.8,0.1,1.4v2.1c0,1.5,0,2.4,0.1,2.8c0.1,0.4,0.2,0.8,0.4,1.1h-1.6
		C213.5,292.7,213.4,292.3,213.4,291.9 M213.2,288.4c-0.6,0.2-1.4,0.4-2.6,0.6c-0.6,0.1-1.1,0.2-1.4,0.3c-0.3,0.1-0.5,0.3-0.6,0.5
		c-0.1,0.2-0.2,0.5-0.2,0.7c0,0.4,0.2,0.8,0.5,1c0.3,0.3,0.8,0.4,1.4,0.4c0.6,0,1.1-0.1,1.6-0.4c0.5-0.3,0.8-0.6,1-1.1
		c0.2-0.4,0.3-0.9,0.3-1.6V288.4z"/>
	<path class="st2" d="M216.2,280.1h1.6v1.8h-1.6V280.1z M217.8,283.7h1.6v9.3h-1.6V283.7z M219.4,280.1h1.6v1.8h-1.6V280.1z"/>
	<polygon class="st2" points="222.2,283.7 223.8,283.7 223.8,287.6 228.2,287.6 228.2,283.7 229.7,283.7 229.7,293 228.2,293 
		228.2,288.9 223.8,288.9 223.8,293 222.2,293 	"/>
	<polygon class="st2" points="232.1,283.7 233.7,283.7 233.7,290.8 238,283.7 239.7,283.7 239.7,293 238.1,293 238.1,286 233.8,293 
		232.1,293 	"/>
</g>
</svg>
